<mxfile host="app.diagrams.net" agent="Mozilla/5.0 (Windows NT 10.0; Win64; x64) AppleWebKit/537.36 (KHTML, like Gecko) Chrome/135.0.0.0 Safari/537.36" version="26.2.8">
  <diagram id="C5RBs43oDa-KdzZeNtuy" name="Page-1">
    <mxGraphModel dx="1904" dy="1036" grid="1" gridSize="10" guides="1" tooltips="1" connect="1" arrows="1" fold="1" page="1" pageScale="1" pageWidth="827" pageHeight="1169" math="0" shadow="0">
      <root>
        <mxCell id="WIyWlLk6GJQsqaUBKTNV-0" />
        <mxCell id="WIyWlLk6GJQsqaUBKTNV-1" parent="WIyWlLk6GJQsqaUBKTNV-0" />
        <mxCell id="Df9YJzmz1zQoDNNNPPr3-4" value="User" style="swimlane;fontStyle=1;align=center;verticalAlign=top;childLayout=stackLayout;horizontal=1;startSize=26;horizontalStack=0;resizeParent=1;resizeParentMax=0;resizeLast=0;collapsible=1;marginBottom=0;whiteSpace=wrap;html=1;" vertex="1" parent="WIyWlLk6GJQsqaUBKTNV-1">
          <mxGeometry x="20" y="40" width="230" height="270" as="geometry" />
        </mxCell>
        <mxCell id="Df9YJzmz1zQoDNNNPPr3-5" value="&lt;div&gt;&lt;p style=&quot;margin-bottom: 0px; margin-top: 0px;&quot; data-pm-slice=&quot;1 1 []&quot;&gt;- Id Int Primary Key&lt;/p&gt;&lt;p style=&quot;margin-top: 0px; margin-bottom: 0px;&quot;&gt;- username varchar(50)&lt;/p&gt;&lt;p style=&quot;margin-top: 0px; margin-bottom: 0px;&quot;&gt;- email varchar(50)&lt;/p&gt;&lt;p style=&quot;margin-top: 0px; margin-bottom: 0px;&quot;&gt;- string password varchar(100)&lt;/p&gt;&lt;p style=&quot;margin-top: 0px; margin-bottom: 0px;&quot;&gt;- age Int&lt;/p&gt;&lt;p style=&quot;margin-top: 0px; margin-bottom: 0px;&quot;&gt;- gender varchar(50) &lt;/p&gt;&lt;p style=&quot;margin-top: 0px; margin-bottom: 0px;&quot;&gt;- weight Int&lt;/p&gt;&lt;p style=&quot;margin-top: 0px; margin-bottom: 0px;&quot;&gt;- height Int&lt;br&gt;&lt;/p&gt;&lt;p style=&quot;margin-top: 0px; margin-bottom: 0px;&quot;&gt;- registration_date DateTime  &lt;/p&gt;&lt;p style=&quot;margin-bottom: 0px; margin-top: 0px;&quot;&gt;- role varchar(50)&lt;/p&gt;&lt;/div&gt;" style="text;strokeColor=none;fillColor=none;align=left;verticalAlign=top;spacingLeft=4;spacingRight=4;overflow=hidden;rotatable=0;points=[[0,0.5],[1,0.5]];portConstraint=eastwest;whiteSpace=wrap;html=1;" vertex="1" parent="Df9YJzmz1zQoDNNNPPr3-4">
          <mxGeometry y="26" width="230" height="154" as="geometry" />
        </mxCell>
        <mxCell id="Df9YJzmz1zQoDNNNPPr3-6" value="" style="line;strokeWidth=1;fillColor=none;align=left;verticalAlign=middle;spacingTop=-1;spacingLeft=3;spacingRight=3;rotatable=0;labelPosition=right;points=[];portConstraint=eastwest;strokeColor=inherit;" vertex="1" parent="Df9YJzmz1zQoDNNNPPr3-4">
          <mxGeometry y="180" width="230" height="8" as="geometry" />
        </mxCell>
        <mxCell id="Df9YJzmz1zQoDNNNPPr3-7" value="&lt;div&gt;+&amp;nbsp;GetUserByUsername(@username)&lt;div&gt;+ GetUserByEmail(@email)&lt;/div&gt;&lt;div&gt;+ AddUser(@username, @email, ...)&lt;/div&gt;&lt;div&gt;+&amp;nbsp;UpdateUser(@username, @email, ...)&lt;/div&gt;&lt;div&gt;+ DeleteUser(@username)&lt;/div&gt;&lt;div&gt;&lt;/div&gt;&lt;/div&gt;" style="text;strokeColor=none;fillColor=none;align=left;verticalAlign=top;spacingLeft=4;spacingRight=4;overflow=hidden;rotatable=0;points=[[0,0.5],[1,0.5]];portConstraint=eastwest;whiteSpace=wrap;html=1;" vertex="1" parent="Df9YJzmz1zQoDNNNPPr3-4">
          <mxGeometry y="188" width="230" height="82" as="geometry" />
        </mxCell>
        <mxCell id="Df9YJzmz1zQoDNNNPPr3-8" value="Goal" style="swimlane;fontStyle=1;align=center;verticalAlign=top;childLayout=stackLayout;horizontal=1;startSize=26;horizontalStack=0;resizeParent=1;resizeParentMax=0;resizeLast=0;collapsible=1;marginBottom=0;whiteSpace=wrap;html=1;" vertex="1" parent="WIyWlLk6GJQsqaUBKTNV-1">
          <mxGeometry x="410" y="40" width="290" height="260" as="geometry" />
        </mxCell>
        <mxCell id="Df9YJzmz1zQoDNNNPPr3-9" value="&lt;p style=&quot;margin-top: 0px; margin-bottom: 0px;&quot; data-pm-slice=&quot;0 0 []&quot;&gt;- Id Int Primary Key&lt;/p&gt;&lt;p style=&quot;margin: 0px;&quot;&gt;- Username varchar(50) Foreign&amp;nbsp;&lt;span style=&quot;background-color: transparent; color: light-dark(rgb(0, 0, 0), rgb(255, 255, 255));&quot;&gt;Key&lt;/span&gt;&lt;/p&gt;&lt;p style=&quot;margin-top: 0px; margin-bottom: 0px;&quot;&gt;&lt;span style=&quot;background-color: transparent; color: light-dark(rgb(0, 0, 0), rgb(255, 255, 255));&quot;&gt;-&lt;/span&gt;&lt;span style=&quot;background-color: transparent; color: light-dark(rgb(0, 0, 0), rgb(255, 255, 255));&quot;&gt;&amp;nbsp;&lt;/span&gt;Goal Int&lt;/p&gt;&lt;p style=&quot;margin-top: 0px; margin-bottom: 0px;&quot;&gt;&lt;span style=&quot;background-color: transparent; color: light-dark(rgb(0, 0, 0), rgb(255, 255, 255));&quot;&gt;-&lt;/span&gt;&lt;span style=&quot;background-color: transparent; color: light-dark(rgb(0, 0, 0), rgb(255, 255, 255));&quot;&gt;&amp;nbsp;&lt;/span&gt;StartDate DateTime &lt;/p&gt;&lt;p style=&quot;margin-top: 0px; margin-bottom: 0px;&quot;&gt;&lt;span style=&quot;background-color: transparent; color: light-dark(rgb(0, 0, 0), rgb(255, 255, 255));&quot;&gt;-&lt;/span&gt;&lt;span style=&quot;background-color: transparent; color: light-dark(rgb(0, 0, 0), rgb(255, 255, 255));&quot;&gt;&amp;nbsp;&lt;/span&gt;EndDate DateTime &lt;/p&gt;&lt;p style=&quot;margin-top: 0px; margin-bottom: 0px;&quot;&gt;&lt;span style=&quot;background-color: transparent; color: light-dark(rgb(0, 0, 0), rgb(255, 255, 255));&quot;&gt;-&lt;/span&gt;&lt;span style=&quot;background-color: transparent; color: light-dark(rgb(0, 0, 0), rgb(255, 255, 255));&quot;&gt;&amp;nbsp;&lt;/span&gt;IsAchieve varchar(50)&lt;/p&gt;&lt;p style=&quot;margin-top: 0px; margin-bottom: 0px;&quot;&gt;&lt;span style=&quot;background-color: transparent; color: light-dark(rgb(0, 0, 0), rgb(255, 255, 255));&quot;&gt;-&lt;/span&gt;&lt;span style=&quot;background-color: transparent; color: light-dark(rgb(0, 0, 0), rgb(255, 255, 255));&quot;&gt;&amp;nbsp;&lt;/span&gt;CaloriesBurned Int&lt;/p&gt;" style="text;strokeColor=none;fillColor=none;align=left;verticalAlign=top;spacingLeft=4;spacingRight=4;overflow=hidden;rotatable=0;points=[[0,0.5],[1,0.5]];portConstraint=eastwest;whiteSpace=wrap;html=1;" vertex="1" parent="Df9YJzmz1zQoDNNNPPr3-8">
          <mxGeometry y="26" width="290" height="114" as="geometry" />
        </mxCell>
        <mxCell id="Df9YJzmz1zQoDNNNPPr3-10" value="" style="line;strokeWidth=1;fillColor=none;align=left;verticalAlign=middle;spacingTop=-1;spacingLeft=3;spacingRight=3;rotatable=0;labelPosition=right;points=[];portConstraint=eastwest;strokeColor=inherit;" vertex="1" parent="Df9YJzmz1zQoDNNNPPr3-8">
          <mxGeometry y="140" width="290" height="8" as="geometry" />
        </mxCell>
        <mxCell id="Df9YJzmz1zQoDNNNPPr3-11" value="+ AddGoal(@username, @goal, ...)&lt;div&gt;+&amp;nbsp;UpdateGoal&lt;span style=&quot;background-color: transparent; color: light-dark(rgb(0, 0, 0), rgb(255, 255, 255));&quot;&gt;(@username, @goal, ...)&lt;/span&gt;&lt;/div&gt;&lt;div&gt;+ UpdateGoalCaloriesBurned(@burnCal, @goalId)&lt;/div&gt;&lt;div&gt;+ UpdateGoalIsAchieve(@goalId)&lt;/div&gt;&lt;div&gt;+&amp;nbsp;UpdateGoalFail()&lt;/div&gt;&lt;div&gt;+&amp;nbsp;DeleteGoal(@Id)&lt;/div&gt;&lt;div&gt;+&amp;nbsp;GetGoals()&lt;/div&gt;" style="text;strokeColor=none;fillColor=none;align=left;verticalAlign=top;spacingLeft=4;spacingRight=4;overflow=hidden;rotatable=0;points=[[0,0.5],[1,0.5]];portConstraint=eastwest;whiteSpace=wrap;html=1;" vertex="1" parent="Df9YJzmz1zQoDNNNPPr3-8">
          <mxGeometry y="148" width="290" height="112" as="geometry" />
        </mxCell>
        <mxCell id="Df9YJzmz1zQoDNNNPPr3-12" value="" style="endArrow=none;html=1;edgeStyle=orthogonalEdgeStyle;rounded=0;entryX=0;entryY=0.5;entryDx=0;entryDy=0;" edge="1" parent="WIyWlLk6GJQsqaUBKTNV-1" target="Df9YJzmz1zQoDNNNPPr3-9">
          <mxGeometry relative="1" as="geometry">
            <mxPoint x="250" y="123" as="sourcePoint" />
            <mxPoint x="320" y="260" as="targetPoint" />
          </mxGeometry>
        </mxCell>
        <mxCell id="Df9YJzmz1zQoDNNNPPr3-13" value="1" style="edgeLabel;resizable=0;html=1;align=left;verticalAlign=bottom;" connectable="0" vertex="1" parent="Df9YJzmz1zQoDNNNPPr3-12">
          <mxGeometry x="-1" relative="1" as="geometry" />
        </mxCell>
        <mxCell id="Df9YJzmz1zQoDNNNPPr3-14" value="*" style="edgeLabel;resizable=0;html=1;align=right;verticalAlign=bottom;" connectable="0" vertex="1" parent="Df9YJzmz1zQoDNNNPPr3-12">
          <mxGeometry x="1" relative="1" as="geometry">
            <mxPoint x="-10" as="offset" />
          </mxGeometry>
        </mxCell>
        <mxCell id="Df9YJzmz1zQoDNNNPPr3-15" value="Activities" style="swimlane;fontStyle=1;align=center;verticalAlign=top;childLayout=stackLayout;horizontal=1;startSize=26;horizontalStack=0;resizeParent=1;resizeParentMax=0;resizeLast=0;collapsible=1;marginBottom=0;whiteSpace=wrap;html=1;" vertex="1" parent="WIyWlLk6GJQsqaUBKTNV-1">
          <mxGeometry x="209" y="420" width="290" height="240" as="geometry" />
        </mxCell>
        <mxCell id="Df9YJzmz1zQoDNNNPPr3-16" value="&lt;p style=&quot;margin-top: 0px; margin-bottom: 0px;&quot; data-pm-slice=&quot;0 0 []&quot;&gt;- Id Int Primary Key &lt;/p&gt;&lt;p style=&quot;margin-top: 0px; margin-bottom: 0px;&quot;&gt;&lt;span style=&quot;background-color: transparent; color: light-dark(rgb(0, 0, 0), rgb(255, 255, 255));&quot;&gt;-&lt;/span&gt;&lt;span style=&quot;background-color: transparent; color: light-dark(rgb(0, 0, 0), rgb(255, 255, 255));&quot;&gt;&amp;nbsp;&lt;/span&gt;activity_name varchar(50) &lt;/p&gt;&lt;p style=&quot;margin-top: 0px; margin-bottom: 0px;&quot;&gt;&lt;span style=&quot;background-color: transparent; color: light-dark(rgb(0, 0, 0), rgb(255, 255, 255));&quot;&gt;-&lt;/span&gt;&lt;span style=&quot;background-color: transparent; color: light-dark(rgb(0, 0, 0), rgb(255, 255, 255));&quot;&gt;&amp;nbsp;&lt;/span&gt;metric_one_value Int &lt;/p&gt;&lt;p style=&quot;margin-top: 0px; margin-bottom: 0px;&quot;&gt;&lt;span style=&quot;background-color: transparent; color: light-dark(rgb(0, 0, 0), rgb(255, 255, 255));&quot;&gt;-&lt;/span&gt;&lt;span style=&quot;background-color: transparent; color: light-dark(rgb(0, 0, 0), rgb(255, 255, 255));&quot;&gt;&amp;nbsp;&lt;/span&gt;metric_two_value Int &lt;/p&gt;&lt;p style=&quot;margin-top: 0px; margin-bottom: 0px;&quot;&gt;&lt;span style=&quot;background-color: transparent; color: light-dark(rgb(0, 0, 0), rgb(255, 255, 255));&quot;&gt;-&lt;/span&gt;&lt;span style=&quot;background-color: transparent; color: light-dark(rgb(0, 0, 0), rgb(255, 255, 255));&quot;&gt;&amp;nbsp;&lt;/span&gt;metric_three_value Int &lt;/p&gt;&lt;p style=&quot;margin-top: 0px; margin-bottom: 0px;&quot;&gt;&lt;span style=&quot;background-color: transparent; color: light-dark(rgb(0, 0, 0), rgb(255, 255, 255));&quot;&gt;-&lt;/span&gt;&lt;span style=&quot;background-color: transparent; color: light-dark(rgb(0, 0, 0), rgb(255, 255, 255));&quot;&gt;&amp;nbsp;&lt;/span&gt;burn_cal Int &lt;br&gt;&lt;/p&gt;&lt;p style=&quot;margin-top: 0px; margin-bottom: 0px;&quot;&gt;&lt;span style=&quot;background-color: transparent; color: light-dark(rgb(0, 0, 0), rgb(255, 255, 255));&quot;&gt;-&lt;/span&gt;&lt;span style=&quot;background-color: transparent; color: light-dark(rgb(0, 0, 0), rgb(255, 255, 255));&quot;&gt;&amp;nbsp;&lt;/span&gt;date DateTime &lt;br&gt;&lt;/p&gt;&lt;p style=&quot;margin-top: 0px; margin-bottom: 0px;&quot;&gt;&lt;span style=&quot;background-color: transparent; color: light-dark(rgb(0, 0, 0), rgb(255, 255, 255));&quot;&gt;-&lt;/span&gt;&lt;span style=&quot;background-color: transparent; color: light-dark(rgb(0, 0, 0), rgb(255, 255, 255));&quot;&gt;&amp;nbsp;&lt;/span&gt;username varchar(50) Foreign Key&lt;/p&gt;&lt;p style=&quot;margin-top: 0px; margin-bottom: 0px;&quot;&gt;&lt;span style=&quot;background-color: transparent; color: light-dark(rgb(0, 0, 0), rgb(255, 255, 255));&quot;&gt;-&lt;/span&gt;&lt;span style=&quot;background-color: transparent; color: light-dark(rgb(0, 0, 0), rgb(255, 255, 255));&quot;&gt;&amp;nbsp;&lt;/span&gt;goal_id Int Foreign Key&amp;nbsp;&lt;/p&gt;" style="text;strokeColor=none;fillColor=none;align=left;verticalAlign=top;spacingLeft=4;spacingRight=4;overflow=hidden;rotatable=0;points=[[0,0.5],[1,0.5]];portConstraint=eastwest;whiteSpace=wrap;html=1;" vertex="1" parent="Df9YJzmz1zQoDNNNPPr3-15">
          <mxGeometry y="26" width="290" height="144" as="geometry" />
        </mxCell>
        <mxCell id="Df9YJzmz1zQoDNNNPPr3-22" value="" style="endArrow=none;html=1;edgeStyle=orthogonalEdgeStyle;rounded=0;exitX=0.494;exitY=0.987;exitDx=0;exitDy=0;exitPerimeter=0;entryX=1.01;entryY=0.597;entryDx=0;entryDy=0;entryPerimeter=0;" edge="1" parent="Df9YJzmz1zQoDNNNPPr3-15">
          <mxGeometry relative="1" as="geometry">
            <mxPoint x="343.25999999999976" y="-121.4559999999999" as="sourcePoint" />
            <mxPoint x="291.9000000000001" y="111.96799999999985" as="targetPoint" />
            <Array as="points">
              <mxPoint x="340" y="-122" />
              <mxPoint x="340" y="110" />
              <mxPoint x="290" y="110" />
              <mxPoint x="290" y="112" />
            </Array>
          </mxGeometry>
        </mxCell>
        <mxCell id="Df9YJzmz1zQoDNNNPPr3-23" value="1" style="edgeLabel;resizable=0;html=1;align=left;verticalAlign=bottom;" connectable="0" vertex="1" parent="Df9YJzmz1zQoDNNNPPr3-22">
          <mxGeometry x="-1" relative="1" as="geometry">
            <mxPoint x="-22" y="30" as="offset" />
          </mxGeometry>
        </mxCell>
        <mxCell id="Df9YJzmz1zQoDNNNPPr3-24" value="*" style="edgeLabel;resizable=0;html=1;align=right;verticalAlign=bottom;" connectable="0" vertex="1" parent="Df9YJzmz1zQoDNNNPPr3-22">
          <mxGeometry x="1" relative="1" as="geometry">
            <mxPoint x="9" as="offset" />
          </mxGeometry>
        </mxCell>
        <mxCell id="Df9YJzmz1zQoDNNNPPr3-17" value="" style="line;strokeWidth=1;fillColor=none;align=left;verticalAlign=middle;spacingTop=-1;spacingLeft=3;spacingRight=3;rotatable=0;labelPosition=right;points=[];portConstraint=eastwest;strokeColor=inherit;" vertex="1" parent="Df9YJzmz1zQoDNNNPPr3-15">
          <mxGeometry y="170" width="290" height="8" as="geometry" />
        </mxCell>
        <mxCell id="Df9YJzmz1zQoDNNNPPr3-18" value="+&amp;nbsp;GetActivities()&lt;div&gt;+&amp;nbsp;GetActivitiesByUsername(@username)&lt;/div&gt;&lt;div&gt;+&amp;nbsp;AddActivity(@activity_name, @metric_one_value)&lt;/div&gt;" style="text;strokeColor=none;fillColor=none;align=left;verticalAlign=top;spacingLeft=4;spacingRight=4;overflow=hidden;rotatable=0;points=[[0,0.5],[1,0.5]];portConstraint=eastwest;whiteSpace=wrap;html=1;" vertex="1" parent="Df9YJzmz1zQoDNNNPPr3-15">
          <mxGeometry y="178" width="290" height="62" as="geometry" />
        </mxCell>
        <mxCell id="Df9YJzmz1zQoDNNNPPr3-19" value="" style="endArrow=none;html=1;edgeStyle=orthogonalEdgeStyle;rounded=0;exitX=0.431;exitY=1;exitDx=0;exitDy=0;exitPerimeter=0;" edge="1" parent="WIyWlLk6GJQsqaUBKTNV-1" source="Df9YJzmz1zQoDNNNPPr3-7" target="Df9YJzmz1zQoDNNNPPr3-16">
          <mxGeometry relative="1" as="geometry">
            <mxPoint x="90" y="420" as="sourcePoint" />
            <mxPoint x="250" y="420" as="targetPoint" />
          </mxGeometry>
        </mxCell>
        <mxCell id="Df9YJzmz1zQoDNNNPPr3-20" value="1" style="edgeLabel;resizable=0;html=1;align=left;verticalAlign=bottom;" connectable="0" vertex="1" parent="Df9YJzmz1zQoDNNNPPr3-19">
          <mxGeometry x="-1" relative="1" as="geometry">
            <mxPoint y="30" as="offset" />
          </mxGeometry>
        </mxCell>
        <mxCell id="Df9YJzmz1zQoDNNNPPr3-21" value="*" style="edgeLabel;resizable=0;html=1;align=right;verticalAlign=bottom;" connectable="0" vertex="1" parent="Df9YJzmz1zQoDNNNPPr3-19">
          <mxGeometry x="1" relative="1" as="geometry">
            <mxPoint x="-9" as="offset" />
          </mxGeometry>
        </mxCell>
        <mxCell id="Df9YJzmz1zQoDNNNPPr3-25" value="ActivityTypes" style="swimlane;fontStyle=0;childLayout=stackLayout;horizontal=1;startSize=26;fillColor=none;horizontalStack=0;resizeParent=1;resizeParentMax=0;resizeLast=0;collapsible=1;marginBottom=0;whiteSpace=wrap;html=1;" vertex="1" parent="WIyWlLk6GJQsqaUBKTNV-1">
          <mxGeometry x="600" y="475" width="210" height="110" as="geometry" />
        </mxCell>
        <mxCell id="Df9YJzmz1zQoDNNNPPr3-28" value="&lt;p style=&quot;margin-top: 0px; margin-bottom: 0px;&quot; data-pm-slice=&quot;0 0 []&quot;&gt;&lt;span style=&quot;background-color: transparent; color: light-dark(rgb(0, 0, 0), rgb(255, 255, 255));&quot;&gt;- Id Int Primary Key&lt;/span&gt;&lt;/p&gt;&lt;p style=&quot;margin-top: 0px; margin-bottom: 0px;&quot;&gt;&lt;span style=&quot;background-color: transparent; color: light-dark(rgb(0, 0, 0), rgb(255, 255, 255));&quot;&gt;-&lt;/span&gt;&lt;span style=&quot;background-color: transparent; color: light-dark(rgb(0, 0, 0), rgb(255, 255, 255));&quot;&gt;&amp;nbsp;&lt;/span&gt;activity varchar(50) &lt;/p&gt;&lt;p style=&quot;margin-bottom: 0px; margin-top: 0px;&quot;&gt;&lt;span style=&quot;background-color: transparent; color: light-dark(rgb(0, 0, 0), rgb(255, 255, 255));&quot;&gt;-&lt;/span&gt;&lt;span style=&quot;background-color: transparent; color: light-dark(rgb(0, 0, 0), rgb(255, 255, 255));&quot;&gt;&amp;nbsp;&lt;/span&gt;metric_one varchar(100)  &lt;/p&gt;&lt;p style=&quot;margin-top: 0px; margin-bottom: 0px;&quot;&gt;&lt;span style=&quot;background-color: transparent; color: light-dark(rgb(0, 0, 0), rgb(255, 255, 255));&quot;&gt;-&lt;/span&gt;&lt;span style=&quot;background-color: transparent; color: light-dark(rgb(0, 0, 0), rgb(255, 255, 255));&quot;&gt;&amp;nbsp;&lt;/span&gt;metric_two varchar(100)  &lt;/p&gt;&lt;p style=&quot;margin-top: 0px; margin-bottom: 0px;&quot;&gt;&lt;span style=&quot;background-color: transparent; color: light-dark(rgb(0, 0, 0), rgb(255, 255, 255));&quot;&gt;-&lt;/span&gt;&lt;span style=&quot;background-color: transparent; color: light-dark(rgb(0, 0, 0), rgb(255, 255, 255));&quot;&gt;&amp;nbsp;&lt;/span&gt;metric_three varchar(100)&amp;nbsp;&lt;/p&gt;" style="text;strokeColor=none;fillColor=none;align=left;verticalAlign=top;spacingLeft=4;spacingRight=4;overflow=hidden;rotatable=0;points=[[0,0.5],[1,0.5]];portConstraint=eastwest;whiteSpace=wrap;html=1;" vertex="1" parent="Df9YJzmz1zQoDNNNPPr3-25">
          <mxGeometry y="26" width="210" height="84" as="geometry" />
        </mxCell>
      </root>
    </mxGraphModel>
  </diagram>
</mxfile>
